<svg xmlns="http://www.w3.org/2000/svg" width="381.621" height="24.47" viewBox="0 0 381.621 24.47">
  <g id="グループ_131" data-name="グループ 131" transform="translate(-342.727 -254.64)">
    <path id="パス_489" data-name="パス 489" d="M354.672,255.209a11.764,11.764,0,1,0,0,23.526,12.009,12.009,0,0,0,8.042-3.065l.07-.063-1.059-1.144-.066-.073-.07.07a7.971,7.971,0,0,1-1.348,1.074c-4.16,2.621-10.039.913-13.111-3.809a10.751,10.751,0,0,1-1.611-8.079,8.163,8.163,0,0,1,3.583-5.234c3.618-2.284,8.639-1.323,11.934,2.289l.066.073,2.014-1.986.07-.066-.07-.066A11.957,11.957,0,0,0,354.672,255.209Z" transform="translate(0 0.374)"/>
    <path id="パス_490" data-name="パス 490" d="M370.861,266.451a5.36,5.36,0,0,0-2.017-4.044,6.762,6.762,0,0,0-5.741-1.167,6.14,6.14,0,0,0-3.177,1.638v-8.223l-2.9.018h-.093V278.62h3V266.677l.028-1.4a4.659,4.659,0,0,1,2.609-2.057,3.912,3.912,0,0,1,3.6.419,4.069,4.069,0,0,1,1.7,3.237V278.62h3V266.546l0-.095Z" transform="translate(9.34 0.01)"/>
    <path id="パス_491" data-name="パス 491" d="M384.139,263.12a9.113,9.113,0,0,0-16.982,3.544c-.023.257-.035.522-.035.786s.012.527.035.784a9.117,9.117,0,0,0,15.408,5.586l.068-.066-1.3-1.3-.066.076a5.356,5.356,0,0,1-1.071.946,5.608,5.608,0,0,1-4.745.617,7.909,7.909,0,0,1-4.316-3.275A8.391,8.391,0,0,1,370,268.32h15.229l.007-.086c.023-.267.035-.53.035-.784s-.012-.519-.035-.786A8.764,8.764,0,0,0,384.139,263.12Zm-1.747,3.458H369.747a5.849,5.849,0,0,1,2.455-5.15c2.793-1.851,6.86-.661,9.063,2.657.139.209.272.433.4.661A8.264,8.264,0,0,1,382.392,266.578Z" transform="translate(16.039 2.547)"/>
    <path id="パス_492" data-name="パス 492" d="M388.055,272.431l-6.072-13.681-.025-.055h-3.305l7.661,17.212.025.055h2.047L395.74,258.7H393.9Z" transform="translate(23.62 2.667)"/>
    <path id="パス_493" data-name="パス 493" d="M399.18,258.558a8.218,8.218,0,0,0-2.493.144,6.1,6.1,0,0,0-3.177,1.638v-1.518l-2.9.018h-.093v17.239h3V264.135l.028-1.406a3.374,3.374,0,0,1,2.175-2,4.222,4.222,0,0,1,3.436.825l.151.108-.041-3.1Z" transform="translate(31.421 2.551)"/>
    <path id="パス_494" data-name="パス 494" d="M405.687,258.512a8.939,8.939,0,1,0,9.075,8.939A9.019,9.019,0,0,0,405.687,258.512Zm6.408,10.827a5.428,5.428,0,0,1-7.16,4.75,7.91,7.91,0,0,1-4.316-3.275c-2.2-3.32-1.719-7.53,1.074-9.385a5.321,5.321,0,0,1,2.969-.877,6.331,6.331,0,0,1,1.778.26,8.214,8.214,0,0,1,5.655,8.526Z" transform="translate(35.427 2.546)"/>
    <path id="パス_495" data-name="パス 495" d="M423.078,263.91a5.353,5.353,0,0,0-2.015-4.044,6.763,6.763,0,0,0-5.74-1.164,6.1,6.1,0,0,0-3.177,1.638v-1.518l-2.9.018h-.093v17.239h3V264.094l.028-1.362a4.659,4.659,0,0,1,2.609-2.057,3.908,3.908,0,0,1,3.593.419,4.072,4.072,0,0,1,1.706,3.237v11.748h3V263.91Z" transform="translate(43.672 2.552)"/>
    <path id="パス_496" data-name="パス 496" d="M436.831,255.209a11.764,11.764,0,1,0,0,23.526,12.006,12.006,0,0,0,8.042-3.065l.07-.063-1.059-1.144-.066-.073-.07.07a7.875,7.875,0,0,1-1.347,1.074c-4.16,2.621-10.039.913-13.109-3.809a10.744,10.744,0,0,1-1.613-8.079,8.162,8.162,0,0,1,3.583-5.234c3.62-2.284,8.639-1.323,11.934,2.289l.066.073,2.016-1.986.068-.066-.068-.066A11.964,11.964,0,0,0,436.831,255.209Z" transform="translate(54.017 0.374)"/>
    <path id="パス_497" data-name="パス 497" d="M447.286,258.512a8.939,8.939,0,1,0,9.075,8.939A9.017,9.017,0,0,0,447.286,258.512Zm6.408,10.827a5.428,5.428,0,0,1-7.16,4.75,7.915,7.915,0,0,1-4.316-3.275c-2.2-3.32-1.72-7.53,1.074-9.385a5.325,5.325,0,0,1,2.969-.874,7.536,7.536,0,0,1,6.095,3.53A7.925,7.925,0,0,1,453.693,269.339Z" transform="translate(62.778 2.546)"/>
    <path id="パス_498" data-name="パス 498" d="M455.113,255.985a5.36,5.36,0,0,0-2.017,4.044l0,1.029h-2.735V262.8h2.735v15.827h3V262.8h4.039v-1.745h-4.039v-1.424a2.824,2.824,0,0,1,.9-2.422c.757-.547,2.007-.524,3.817.073l.123.04v-2.412l.017-.093h-.093A6.763,6.763,0,0,0,455.113,255.985Z" transform="translate(70.765 0)"/>
    <path id="パス_499" data-name="パス 499" d="M462.383,255.985a5.355,5.355,0,0,0-2.017,4.044l0,1.029h-2.735V262.8h2.735v15.827h3V262.8H467.4v-1.745h-4.041v-1.424a2.824,2.824,0,0,1,.9-2.422c.758-.547,2.007-.524,3.817.073l.123.04v-2.412l.017-.093h-.094A6.759,6.759,0,0,0,462.383,255.985Z" transform="translate(75.544 0)"/>
    <path id="パス_500" data-name="パス 500" d="M481.523,263.12a9.113,9.113,0,0,0-16.982,3.544c-.023.254-.035.519-.035.786s.011.53.035.784a9.117,9.117,0,0,0,15.408,5.586l.068-.066-1.3-1.3-.066.076a5.3,5.3,0,0,1-1.071.946,5.611,5.611,0,0,1-4.747.617,7.921,7.921,0,0,1-4.316-3.275,8.388,8.388,0,0,1-1.125-2.493h15.227l.008-.086c.023-.257.035-.52.035-.784s-.012-.529-.035-.786A8.766,8.766,0,0,0,481.523,263.12Zm-1.747,3.458H467.13a5.858,5.858,0,0,1,2.456-5.15,5.6,5.6,0,0,1,4.747-.617,7.914,7.914,0,0,1,4.316,3.274c.139.209.272.433.4.661A8.282,8.282,0,0,1,479.776,266.578Z" transform="translate(80.066 2.547)"/>
    <path id="パス_501" data-name="パス 501" d="M493.867,263.12a9.113,9.113,0,0,0-16.982,3.544c-.022.257-.033.522-.033.786s.012.527.033.784a9.117,9.117,0,0,0,15.408,5.586l.07-.066-1.3-1.3-.068.076a5.3,5.3,0,0,1-1.069.946c-2.793,1.853-6.86.661-9.063-2.659a8.386,8.386,0,0,1-1.127-2.493h15.229l.007-.086c.023-.257.035-.52.035-.784s-.012-.529-.035-.786A8.756,8.756,0,0,0,493.867,263.12Zm-1.747,3.458H479.475a5.853,5.853,0,0,1,2.456-5.15c2.795-1.85,6.86-.661,9.063,2.657.139.212.272.434.4.661A8.2,8.2,0,0,1,492.12,266.578Z" transform="translate(88.182 2.547)"/>
    <path id="パス_502" data-name="パス 502" d="M505.107,269.372a7.653,7.653,0,0,0,4.818-8.736c-.6-3.086-2.77-5.243-5.281-5.243h-9.512v1.712h1.462v21.207h2.992v-7.954a17.932,17.932,0,0,0,2.423-.167l5.718,8.083.028.038h3.928l-6.441-8.781Zm-5.521-12.267h3.555c2.476,0,4.14,2.8,4.14,5.417a5.66,5.66,0,0,1-1.754,4.185,8.482,8.482,0,0,1-5.942,1.943Z" transform="translate(100.202 0.495)"/>
    <path id="パス_503" data-name="パス 503" d="M515.141,258.512a8.939,8.939,0,1,0,9.075,8.939A9.017,9.017,0,0,0,515.141,258.512Zm6.408,10.827a5.607,5.607,0,0,1-2.413,4.134c-2.793,1.853-6.86.661-9.063-2.659s-1.719-7.53,1.074-9.385a5.325,5.325,0,0,1,2.969-.874,7.536,7.536,0,0,1,6.095,3.53A7.916,7.916,0,0,1,521.549,269.339Z" transform="translate(107.39 2.546)"/>
    <path id="パス_504" data-name="パス 504" d="M526.121,258.518a13.985,13.985,0,0,0-5.16,1.057l-.045.02-.557,2.9.2-.151a10.713,10.713,0,0,1,6.32-2.377c1.785.124,2.629,1.361,2.649,3.893-.65.013-1.644.053-2.4.1-5.7.409-7.633,2.978-8.279,4.475a5.522,5.522,0,0,0,.852,5.687,6.3,6.3,0,0,0,4.982,2.241,8.252,8.252,0,0,0,1.663-.174,7.513,7.513,0,0,0,1.341-.411,5.516,5.516,0,0,0,1.737-1.137l.1-.086v1.517l2.9-.02h.094v-11.81C532.517,260.714,530.065,258.518,526.121,258.518ZM521.258,270.9c-.055-2.258,1.745-4.86,5.188-5.236.811-.09,2.009-.158,3.078-.174v5.819c0,.363,0,.444-.016.625-.005.063-.01.139-.015.24a4.674,4.674,0,0,1-2.609,2.057,4.5,4.5,0,0,1-4.056-.464A3.591,3.591,0,0,1,521.258,270.9Z" transform="translate(115.506 2.55)"/>
    <path id="パス_505" data-name="パス 505" d="M538.716,266.789c-.743-.3-1.565-.567-2.359-.822a20.188,20.188,0,0,1-3.258-1.248,2.527,2.527,0,0,1-1.588-2.115,2.259,2.259,0,0,1,1.364-1.9c1.457-.758,4.129-.789,7.263,1.387l.1.07.83-2.307-.07-.04c-2.992-1.646-7.321-1.742-9.855-.22a4.062,4.062,0,0,0-2.128,3.675c.043,3.043,3.1,4.076,5.791,4.987,2.229.754,4.336,1.467,4.6,3.157a2.408,2.408,0,0,1-1.311,2.468c-1.765,1.049-5.017,1-8.311-1.508l-.1-.076-.9,2.475.068.04a11.3,11.3,0,0,0,5.994,1.58c4.251,0,6.931-2.32,7.382-4.613C542.63,269.718,541.318,267.853,538.716,266.789Z" transform="translate(122.325 2.547)"/>
    <path id="パス_506" data-name="パス 506" d="M543.952,255.286h-3v5.347H538.22v1.745h2.735v10.744h0a5.368,5.368,0,0,0,1.82,3.877A6.264,6.264,0,0,0,547,278.512a8.084,8.084,0,0,0,.908-.051l.083-.01v-1.52l-.1,0-.086,0a3.889,3.889,0,0,1-3.859-3.9V262.378h4.041v-1.745h-4.041Z" transform="translate(128.531 0.425)"/>
    <path id="パス_507" data-name="パス 507" d="M562.428,263.12a9.114,9.114,0,0,0-16.984,3.544c-.022.257-.033.522-.033.786s.012.527.033.784a9.117,9.117,0,0,0,15.408,5.586l.07-.066-1.3-1.3-.066.076a5.3,5.3,0,0,1-1.071.946,5.622,5.622,0,0,1-4.747.617,7.921,7.921,0,0,1-4.316-3.275,8.386,8.386,0,0,1-1.125-2.493h15.229l.007-.086c.022-.26.033-.524.033-.784s-.012-.525-.033-.786A8.762,8.762,0,0,0,562.428,263.12Zm-1.747,3.458H548.035a5.854,5.854,0,0,1,2.456-5.15,5.624,5.624,0,0,1,4.747-.617,7.919,7.919,0,0,1,4.316,3.274c.139.212.274.434.4.661A8.178,8.178,0,0,1,560.681,266.578Z" transform="translate(133.259 2.547)"/>
    <path id="パス_508" data-name="パス 508" d="M566.809,258.558a8.1,8.1,0,0,0-2.491.144,6.115,6.115,0,0,0-3.179,1.638v-1.518l-2.9.018h-.093v17.239h3V264.1l.03-1.369a3.364,3.364,0,0,1,2.174-2,4.223,4.223,0,0,1,3.434.825l.151.109-.042-3.1Z" transform="translate(141.632 2.551)"/>
    <path id="パス_509" data-name="パス 509" d="M574.749,266.789c-.744-.3-1.566-.567-2.36-.824a20.018,20.018,0,0,1-3.257-1.246,2.527,2.527,0,0,1-1.588-2.115,2.262,2.262,0,0,1,1.362-1.9c1.455-.754,4.129-.789,7.265,1.387l.1.07.829-2.307-.07-.04c-2.993-1.646-7.321-1.742-9.857-.22a4.065,4.065,0,0,0-2.128,3.675c.045,3.043,3.1,4.076,5.791,4.987,2.231.754,4.338,1.467,4.6,3.157a2.409,2.409,0,0,1-1.313,2.468c-1.764,1.049-5.017,1-8.309-1.508l-.1-.076-.9,2.475.068.04a11.3,11.3,0,0,0,5.992,1.58c4.253,0,6.933-2.32,7.382-4.613C578.664,269.718,577.352,267.853,574.749,266.789Z" transform="translate(146.017 2.547)"/>
  </g>
</svg>
