<svg xmlns="http://www.w3.org/2000/svg" width="33.509" height="32.458" viewBox="0 0 33.509 32.458">
  <path id="パス_572" data-name="パス 572" d="M1651.239,745.1c-8.825,0-16.822,7.177-16.822,16.03s8,16.028,16.822,16.028a16.031,16.031,0,1,0,0-32.058Zm14.382,16.03a14.273,14.273,0,0,1-2.331,8.269.242.242,0,0,1-.435-.094c-.923-6.851-4.509-11.353-8.495-13.153a3.9,3.9,0,0,1-2.337-3.439V747.3a.774.774,0,0,1,.1-.469l.477-.621a.3.3,0,0,1,.288-.128C1660.054,746.943,1665.621,753.323,1665.621,761.13Zm-14.88,10.575c0,.582-.555.689-1.129.564-4.4-.962-7.628-5.541-7.628-11.14s3.228-10.178,7.63-11.139c.572-.125,1.127-.129,1.127.806Zm1.282-14.87c0-.215.377-.488.751-.381,4.235,1.217,8.208,7.258,8.6,15.549h.01a15.972,15.972,0,0,1-9.067,4.234c-.156.012-.29-.1-.29-.4Zm-15.7,4.3a15.265,15.265,0,0,1,14.125-15.123.271.271,0,0,1,.293.257v2.083a.89.89,0,0,1-.805.859,12.049,12.049,0,0,0,.529,23.9.283.283,0,0,1,.276.272v1.605a.6.6,0,0,1-.1.331l-.523.641a.526.526,0,0,1-.5.223A15.326,15.326,0,0,1,1636.323,761.13Z" transform="translate(-1634.217 -744.9)" stroke="#000" stroke-miterlimit="10" stroke-width="0.4"/>
</svg>
